# xmcd
#
# Track frame offsets:
#	150
#	17660
#	29520
#	47687
#	66365
#	79535
#	96085
#	115832
#	134665
#	150887
#	168910
#	187347
#	199537
#	214917
#
# Disc length: 3095 seconds
#
# Revision: 2
# Processed by: cddbd v1.5.2PL0 Copyright (c) Steve Scherf et al.
# Submitted via: EasyCDDAExtractor 11.1.0.1
#
DISCID=bc0c150e
DTITLE=Various Artist - Mr. Music Country Feb 1998
DYEAR=1900
DGENRE=Country
TTITLE0=Charlie Daniels - John Henry
TTITLE1=Rick Trevino - A Quarter at a Time
TTITLE2=Sara Evans - Three Chords and the Truth
TTITLE3=Deryl Dodd - One Ride in Vegas
TTITLE4=Becky Hobbs - Don't Know When I'll Love Again
TTITLE5=Larry Butler and Willie Nelson - My Mama's Waltz
TTITLE6=Miller Band - Texas Tattoo/Gibson
TTITLE7=Ty Herndon - Don't Tell Mama
TTITLE8=Joe Diffe - This Is Your Brain
TTITLE9=Ricochet - Daddy's Money
TTITLE10=Wade Hayes - Family Reunion
TTITLE11=Tricia Elliott - The Heart
TTITLE12=James Bonamy - Brain in a Jar
TTITLE13=Lorrie Morgan - I've Enjoyed As Much of This As I Can Stand
EXTD=
EXTT0=
EXTT1=
EXTT2=
EXTT3=
EXTT4=
EXTT5=
EXTT6=
EXTT7=
EXTT8=
EXTT9=
EXTT10=
EXTT11=
EXTT12=
EXTT13=
PLAYORDER=
